Patient4_TMGait_0pt3_01_left_27_EMG.mot
version=1
nRows=26
nColumns=33
inDegrees=no
endheader
time	1LAddLong	2LGlutMax	3LGlutMed	4LIliopsoas	5LSemiMemb	6LBicFemLong	7LRecFem	8LVastMed	9LVastLat	10LGasMed	11LTibAnt	12lTibPost	13LPeroneusLong	14LSol	15LExtDigLong	16LFlexDigLong	17RAddLong	18RGlutMax	19RGlutMed	20RIliopsoas	21RSemiMemb	22RBicFemLong	23RRecFem	24RVastMed	25RVastLat	26RGasMed	27RTibAnt	28RTibPost	29RPeroneusLong	30RSol	31RExtDigLong	32RFlexDigLong
52.19	-0.002441	-0.098877	-0.10132	0.023499	0.004272	0.012817	0.037079	0.010071	0.034485	-0.015564	0.014496	0.026703	-0.030518	0.16281	-0.014801	-0.006714	-0.044403	-0.067291	-0.023041	0.26627	-0.16617	0.17471	-0.046692	0.037689	-0.014038	-0.004425	0.30853	-0.009155	-0.11124	0.038147	-0.003815	0.001221
52.191	0.002594	-0.1088	-0.079041	0.011749	0.004883	0.098724	-0.001068	0.004272	0.040131	-0.005188	0.017395	-0.037079	-0.059967	0.019989	-0.011902	-0.010529	-0.020447	-0.085754	-0.25848	0.30701	-0.22293	0.15121	-0.046997	-0.015411	-0.040588	-0.004425	0.34561	-0.00885	-0.18478	0.019989	-0.003662	-0.002289
52.192	-0.007935	-0.071259	-0.10498	0.015259	-0.002747	-0.18509	-0.072174	0.008087	0.021057	0.012665	0.01358	-0.021515	-0.082092	0.12268	0.019226	-0.035553	-0.004578	-0.064392	-0.31708	0.29831	-0.058594	0.12177	-0.016327	-0.061188	-0.038757	0.000916	0.30411	-0.002594	-0.17441	-0.013275	-0.008392	-0.002136
52.193	0.007629	-0.049591	-0.049896	-0.009003	0.002594	-0.17838	-0.026855	0.007935	0.048523	0.041656	0.014343	-0.00946	-0.11932	0.11978	-0.007935	-0.038757	0.003357	-0.031433	-0.11047	0.1593	0.2359	0.056915	0.000916	-0.074768	-0.044556	-0.001831	-0.23697	-0.004578	-0.10361	-0.062103	-0.00473	0.003662
52.194	0.002441	-0.07431	-0.02243	0.017242	0.005188	-0.071411	0.00351	-0.002441	0.045929	0.031586	0.00412	-0.005341	-0.033417	0.03952	-0.00824	-0.031586	0.036926	-0.003967	-0.12634	0.075684	0.30746	0.066986	-0.029602	-0.094604	-0.036621	0.004578	-0.050812	-0.001373	0.043182	-0.12726	-0.004425	0.007629
52.195	0.004883	-0.10574	-0.043793	0.017395	-0.000458	0.028839	0.00885	-0.000763	0.035248	0.019836	-0.00412	0.006561	0.007324	0.055084	0.026398	0.021667	0.065918	-0.034332	-0.068207	-0.011902	0.10239	0.1326	-0.018616	-0.20523	-0.071259	0.009155	-0.073242	-0.001221	0.20935	-0.18127	-0.008698	0.004578
52.196	0.002289	-0.072784	-0.077972	0.010529	-0.00824	0.05127	-0.005493	0.001068	0.029907	0.036926	-0.00351	0.00061	0.008087	0.072937	0.049286	-0.004578	0.067444	-0.037231	-0.000305	-0.009918	0.014954	0.13855	0.020599	-0.21179	-0.071869	0.007477	-0.33768	-0.001984	-0.01297	-0.11444	-0.002289	0.002747
52.197	0.002136	-0.079956	-0.1178	0.01709	0.009155	-0.002289	-0.004272	0.004425	0.02533	0.062103	0.004272	-0.00061	0.019684	0.21271	0.055542	0.000763	0.049591	-0.053101	-0.015259	-0.03952	0.11078	0.16449	-0.028992	-0.18936	-0.021667	0.000916	-0.43549	-0.003662	-0.35156	-0.00061	-0.005493	0.000763
52.198	-0.001984	-0.053406	-0.16098	0.005951	-0.011444	0.034637	0.015106	0.00824	0.009308	0.050659	0.009308	-0.00412	0.00824	0.21332	0.038605	-0.006256	0.014191	-0.041046	-0.15747	-0.023956	0.2095	0.13596	-0.076904	0.006256	0.026245	0	-0.28473	-0.004272	-0.48599	0.079498	-0.003357	0.002441
52.199	-0.002594	-0.018158	0.098724	-0.006256	-0.005798	0.082092	0.034332	0.005493	0.016174	0.059509	0.002136	-0.005035	0.000305	0.15747	0.020294	-0.001678	-0.019073	-0.018921	-0.28732	-0.03067	0.13229	0.035095	-0.093231	0.12924	0.016632	-0.001068	-0.16419	-0.003204	0.2562	0.063477	-0.004425	-0.00473
52.2	0.003967	-0.016327	0.076141	0.007019	-0.014191	-0.070038	0.032196	0.004883	0.004883	0.075836	0.014038	-0.00824	-0.00351	0.11261	0.019226	-0.009613	-0.035553	-0.033569	-0.31265	-0.12192	0.13947	0.03891	0.010529	0.091705	-0.009003	-0.001221	-0.044556	-0.005493	0.84305	0.10742	-0.004883	-0.005341
52.201	0.010071	-0.042572	-0.079498	0.018768	0.013123	-0.15213	0.020142	0.006104	0.013733	-0.031281	0.011139	-0.007019	-0.023346	0.050354	0.021057	-0.011139	-0.061646	0.010223	-0.31784	-0.13229	0.002899	0.03418	-0.017395	0.062256	-0.014801	-0.004578	-0.066223	0.006866	0.50034	0.14999	-0.001678	-0.005493
52.202	0.003662	-0.049591	-0.12131	0.013885	0.034027	-0.047302	0.029449	0.009155	0.011139	-0.10529	0.00824	-0.002899	0.008392	0.030212	0.02182	0.002289	-0.083923	0.033875	-0.26459	-0.10208	-0.075836	0.044861	-0.000916	0.039978	-0.011444	0.004425	-0.087891	-0.006866	0.2211	0.14816	-0.004578	0.00061
52.203	-0.009613	-0.09079	-0.10742	0.007324	0.010529	0.028534	0.060883	0.006714	0.005035	-0.031738	0.005493	-0.002289	0.052032	0.027771	0.01236	-0.014038	-0.066071	0.010223	-0.19638	-0.027618	-0.061646	0.045166	0.053864	0.003052	-0.0354	-0.000153	-0.002289	0.000305	0.061646	0.13825	-0.00061	-0.016022
52.204	-0.004578	-0.10941	-0.081329	0.016174	-0.010071	0.073395	0.044403	0.005798	0.011292	0.041199	0.007782	0.000916	0.084229	0.014191	0.005493	0.001526	-0.045624	-0.030212	-0.25299	0.037537	0.006104	0.074463	0.19196	0.010376	-0.079651	-0.00351	0.001526	0.001221	0.053558	0.11734	-0.002441	-0.006561
52.205	-0.001526	-0.11856	-0.083618	0.002441	-0.014496	0.044403	0.067749	0	0.027771	0.15243	-0.006409	0.007324	0.014038	0.011902	-0.010071	-0.003357	-0.018311	-0.014343	0.10895	0.09491	0.094757	0.11246	0.27664	-0.031433	-0.19119	0.007172	-0.004578	-0.000305	0.068207	0.087891	-0.00824	-0.002747
52.206	0.001984	-0.12116	-0.030212	0.016022	0.007172	0.001831	0.081635	0.001984	0.009613	0.1062	0.009308	-0.03067	-0.078735	0.024872	-0.004578	-0.034332	-0.033112	-0.014343	0.65048	0.058136	0.25207	0.11643	0.080109	0.039825	-0.21042	-0.002441	-0.018616	0.002747	0.079498	0.098877	-0.00351	-0.003204
52.207	0.011749	-0.085754	-0.045776	0.020294	-0.003204	-0.003815	0.077209	0.00351	0.012054	-0.12589	0.009766	-0.064697	-0.094604	-0.046082	0.011292	-0.057678	-0.02533	-0.050354	0.21698	0.027924	0.30456	0.094147	-0.013885	0.062866	-0.19653	-0.004578	0.00824	0.002136	0.00412	0.084381	0.000458	-0.011292
52.208	0.016022	-0.11154	-0.054321	0.016022	0.014801	-0.032349	0.050354	0.001526	0.012665	0.01358	-0.003662	-0.019989	-0.13596	-0.066681	0.026855	0.080719	-0.012512	-0.017242	0.25894	-0.099792	0.20309	0.068817	-0.078735	0.056305	-0.11841	-0.002594	0.015106	0.001221	-0.004578	0.042725	0.000153	-0.010529
52.209	0.013123	-0.084381	-0.05661	0.027313	0.046539	0.036316	0.062408	0.007935	0.071564	0.29938	-0.002899	0.10727	-0.06424	-0.12436	0.027161	0.041199	0.008087	-0.018005	0.15335	-0.08194	0.12772	0.041351	0.009613	0.051422	-0.085602	-0.001068	0.014954	0.004272	0.005493	0.041504	-0.003357	0.005493
52.21	0.014343	-0.084991	-0.063782	0.02655	0.037537	0.067902	0.041809	0.007629	0.11383	0.62576	-0.009003	-0.004425	-0.055389	-0.19089	0.009155	0.13916	0.023041	0.002594	0.2005	-0.003662	0.032806	0.071564	-0.087738	0.010834	-0.019379	-0.003052	0.017395	0.003052	0.019836	0.03418	-0.001831	-0.000305
52.211	0.006409	-0.10788	-0.10269	0.013733	0.043488	0.064545	-0.000153	0.006409	0.1535	0.4744	0.010834	-0.022583	-0.016479	-0.15823	-0.004883	-0.079956	0.022736	-0.027771	0.083923	0.061951	-0.039063	0.078735	-0.46799	-0.049286	0.015717	-0.005798	0.005951	0.007477	0.020294	0.022278	-0.002899	-0.001526
52.212	0.005188	-0.072327	-0.12451	0.025787	0.027618	0.025177	-0.034332	0.01297	0.19424	0.10208	-0.00061	-0.006866	-0.001984	-0.12085	-0.011444	-0.063019	0.005951	0.01236	0.007629	0.065002	0.02243	0.11963	-0.66055	0.019379	0.16678	-0.011139	0.018463	0.002899	-0.01236	0.02655	-0.008087	-0.004272
52.213	0.005798	-0.063171	-0.072021	0.011749	0.019684	-0.005798	0.013733	0.01358	0.22049	0.38666	0.002747	0.013733	0.080719	0.093842	-0.004578	-0.017242	-0.011139	0.002594	-0.011139	0.058899	0.11734	0.11719	-0.50079	0.033264	0.22492	-0.012054	0.027161	0.001831	-0.015564	0.027771	-0.005341	0.004425
52.214	-0.000458	-0.045624	0.024261	0.011292	0.013123	0.056305	0.092621	0.000916	0.13748	-0.009003	0.003967	0.052185	0.12054	0.31937	0.004578	-0.018005	0.031128	-0.002289	-0.047302	0.048065	0.18326	0.048828	-0.20966	0.021057	0.080566	-0.010834	0.018463	0.012665	0.068512	0.026093	-0.005188	0
52.215	0.004578	-0.024261	-0.040741	0.016785	0.012054	-0.003967	0.15533	-0.005341	-0.23453	-0.44556	0.031586	0.032806	0.15976	0.16449	-0.011292	-0.020599	0.036316	0.020905	-0.11871	0.001678	0.35141	0.017853	-0.15945	0.092621	0.04364	-0.006409	0.035248	0.003052	-0.035858	0.031891	-0.005341	-0.000458
